<?xml version="1.0" encoding="iso-8859-1"?>
<!-- Generator: Adobe Illustrator 21.0.0, SVG Export Plug-In . SVG Version: 6.00 Build 0)  -->
<svg xmlns="http://www.w3.org/2000/svg" xmlns:xlink="http://www.w3.org/1999/xlink" version="1.1" id="Capa_1" x="0px" y="0px" viewBox="0 0 512 512" style="enable-background:new 0 0 512 512;" xml:space="preserve" width="512" height="512">
<g>
	<path style="fill:#FFDA2D;" d="M437.02,74.98C388.667,26.629,324.38,0,256,0S123.333,26.629,74.98,74.98   C26.629,123.333,0,187.62,0,256s26.629,132.667,74.98,181.02C123.333,485.371,187.62,512,256,512s132.667-26.629,181.02-74.98   C485.371,388.667,512,324.38,512,256S485.371,123.333,437.02,74.98z"/>
	<path style="fill:#FDBF00;" d="M437.02,74.98C388.667,26.629,324.38,0,256,0v512c68.38,0,132.667-26.629,181.02-74.98   C485.371,388.667,512,324.38,512,256S485.371,123.333,437.02,74.98z"/>
	<g>
		<path style="fill:#FE5957;" d="M105.822,272.712c0,82.809,67.37,150.178,150.178,150.178s150.178-67.37,150.178-150.178v-15    H105.822V272.712z"/>
		<polygon style="fill:#292929;" points="352.132,192.064 389.268,156.002 368.369,134.48 278.176,222.064 407.67,222.064     407.67,192.064   "/>
		<polygon style="fill:#444444;" points="146.636,134.48 125.736,156.002 162.872,192.064 107.334,192.064 107.334,222.064     236.828,222.064   "/>
	</g>
	<g>
		<path style="fill:#FC1D5A;" d="M256,257.712V422.89c82.808,0,150.178-67.37,150.178-150.178v-15H256z"/>
	</g>
</g>
<g>
	<g>
		<path style="fill:#FC1D5A;" d="M148.807,377.778C176.08,405.598,214.056,422.89,256,422.89c44.773,0,85.026-19.702,112.564-50.883    c-28.434-24.454-67.016-40.83-106.869-40.83C217.641,331.177,177.747,348.978,148.807,377.778z"/>
	</g>
</g>
<g>
	<g>
		<path style="fill:#DD0057;" d="M261.695,331.177c-1.907,0-3.804,0.046-5.695,0.112v91.602c44.773,0,85.026-19.702,112.564-50.883    C340.129,347.552,301.548,331.177,261.695,331.177z"/>
	</g>
</g>















</svg>
